<?xml version="1.0" encoding="utf-8"?>
<!-- Generator: Adobe Illustrator 17.0.0, SVG Export Plug-In . SVG Version: 6.00 Build 0)  -->
<!DOCTYPE svg PUBLIC "-//W3C//DTD SVG 1.1//EN" "http://www.w3.org/Graphics/SVG/1.1/DTD/svg11.dtd">
<svg version="1.1" id="图层_1" xmlns="http://www.w3.org/2000/svg" xmlns:xlink="http://www.w3.org/1999/xlink" x="0px" y="0px"
	 width="14px" height="14px" viewBox="0 0 14 14" enable-background="new 0 0 14 14" xml:space="preserve">
<g>
	<path fill="none" d="M7.088,3.837c-0.574,0-1.107,0.154-1.6,0.461v0.896c0.425-0.425,0.917-0.637,1.477-0.637
		c0.354,0,0.635,0.094,0.842,0.281c0.207,0.188,0.31,0.426,0.31,0.716c0,0.272-0.067,0.513-0.2,0.723
		C7.783,6.488,7.561,6.713,7.25,6.953c-0.316,0.246-0.536,0.48-0.659,0.701S6.407,8.14,6.407,8.447v0.378h0.765V8.482
		c0-0.264,0.051-0.469,0.154-0.615s0.303-0.344,0.602-0.593c0.372-0.308,0.637-0.601,0.795-0.879S8.96,5.808,8.96,5.468
		c0-0.486-0.169-0.88-0.508-1.18S7.659,3.837,7.088,3.837z"/>
	<path fill="none" d="M6.785,9.744c-0.152,0-0.283,0.053-0.393,0.16s-0.165,0.24-0.165,0.398c0,0.161,0.056,0.294,0.167,0.4
		s0.242,0.158,0.391,0.158c0.155,0,0.289-0.053,0.4-0.16s0.167-0.24,0.167-0.398c0-0.155-0.056-0.287-0.167-0.396
		S6.94,9.744,6.785,9.744z"/>
	<path fill="#F26739" d="M7,1C3.686,1,1,3.686,1,7s2.686,6,6,6s6-2.686,6-6S10.314,1,7,1z M7.185,10.699
		c-0.111,0.107-0.245,0.16-0.4,0.16c-0.149,0-0.28-0.053-0.391-0.158s-0.167-0.239-0.167-0.4c0-0.158,0.055-0.291,0.165-0.398
		s0.241-0.16,0.393-0.16c0.155,0,0.289,0.054,0.4,0.163s0.167,0.24,0.167,0.396C7.352,10.46,7.296,10.593,7.185,10.699z
		 M8.723,6.395C8.564,6.673,8.299,6.966,7.927,7.274c-0.299,0.249-0.5,0.447-0.602,0.593S7.171,8.219,7.171,8.482v0.343H6.407V8.447
		c0-0.308,0.062-0.572,0.185-0.793S6.934,7.199,7.25,6.953c0.311-0.24,0.532-0.465,0.666-0.675c0.133-0.209,0.2-0.45,0.2-0.723
		c0-0.29-0.103-0.529-0.31-0.716C7.6,4.652,7.319,4.558,6.965,4.558c-0.56,0-1.052,0.212-1.477,0.637V4.299
		c0.492-0.308,1.025-0.461,1.6-0.461c0.571,0,1.026,0.15,1.365,0.45S8.96,4.981,8.96,5.468C8.96,5.808,8.881,6.117,8.723,6.395z"/>
</g>
</svg>
