<?xml version="1.0" encoding="UTF-8"?>
<svg width="13px" height="13px" viewBox="0 0 13 13" version="1.1" xmlns="http://www.w3.org/2000/svg" xmlns:xlink="http://www.w3.org/1999/xlink">
    <!-- Generator: Sketch 39.1 (31720) - http://www.bohemiancoding.com/sketch -->
    <title>？ copy 4</title>
    <desc>Created with Sketch.</desc>
    <defs>
        <path d="M13,6.5 C13,2.91014913 10.0898509,0 6.5,0 C2.91014913,0 0,2.91014913 0,6.5 C0,10.0898509 2.91014913,13 6.5,13 C10.0898509,13 13,10.0898509 13,6.5 Z" id="path-1"></path>
        <mask id="mask-2" maskContentUnits="userSpaceOnUse" maskUnits="objectBoundingBox" x="0" y="0" width="13" height="13" fill="white">
            <use xlink:href="#path-1"></use>
        </mask>
    </defs>
    <g id="Page-1" stroke="none" stroke-width="1" fill="none" fill-rule="evenodd">
        <g id="图标" transform="translate(-301.000000, -401.000000)">
            <g id="？-copy-4" transform="translate(301.000000, 401.000000)">
                <use id="Oval-151" stroke="#666666" mask="url(#mask-2)" stroke-width="2" xlink:href="#path-1"></use>
                <path d="M6,9 L7,9 L7,10 L6,10 L6,9 Z M4,5.33333333 C4,5.33333333 4,3 6.5,3 C9,3 9,5.1 9,5.1 C9,6.03333333 7,7.2 7,7.9 L7,8 L6,8 L6,7.9 C6,6.96666667 8,5.8 8,5.1 C8,4.63333333 7.75,3.93333333 6.5,3.93333333 C5.25,3.93333333 5,5.33333333 5,5.33333333 L4,5.33333333 Z" id="Rectangle-540" fill="#666666"></path>
            </g>
        </g>
    </g>
</svg>