<?xml version="1.0" encoding="utf-8"?>
<!-- Generator: Adobe Illustrator 17.0.0, SVG Export Plug-In . SVG Version: 6.00 Build 0)  -->
<!DOCTYPE svg PUBLIC "-//W3C//DTD SVG 1.1//EN" "http://www.w3.org/Graphics/SVG/1.1/DTD/svg11.dtd">
<svg version="1.1" id="图层_1" xmlns="http://www.w3.org/2000/svg" xmlns:xlink="http://www.w3.org/1999/xlink" x="0px" y="0px"
	 width="14px" height="14px" viewBox="0 0 14 14" enable-background="new 0 0 14 14" xml:space="preserve">
<path fill-rule="evenodd" clip-rule="evenodd" fill="#F26225" d="M6.785,9.744c0.155,0,0.289,0.054,0.4,0.163
	c0.111,0.108,0.167,0.24,0.167,0.396c0,0.158-0.056,0.291-0.167,0.398c-0.111,0.107-0.245,0.16-0.4,0.16
	c-0.149,0-0.28-0.053-0.391-0.158c-0.111-0.105-0.167-0.239-0.167-0.4c0-0.158,0.055-0.291,0.165-0.398
	C6.501,9.797,6.632,9.744,6.785,9.744z M7.171,8.825H6.407V8.447c0-0.308,0.062-0.572,0.185-0.793
	C6.714,7.433,6.934,7.199,7.25,6.953c0.311-0.24,0.532-0.465,0.666-0.675c0.133-0.209,0.2-0.45,0.2-0.723
	c0-0.29-0.103-0.529-0.31-0.716C7.6,4.652,7.319,4.558,6.965,4.558c-0.56,0-1.052,0.212-1.477,0.637V4.299
	c0.492-0.308,1.025-0.461,1.6-0.461c0.571,0,1.026,0.15,1.365,0.45c0.338,0.3,0.508,0.694,0.508,1.18
	c0,0.34-0.079,0.649-0.237,0.927C8.564,6.673,8.299,6.966,7.927,7.274c-0.299,0.249-0.5,0.447-0.602,0.593
	C7.223,8.014,7.171,8.219,7.171,8.482V8.825z"/>
<path fill-rule="evenodd" clip-rule="evenodd" fill="#F26225" d="M7,12c2.761,0,5-2.239,5-5S9.761,2,7,2S2,4.239,2,7S4.239,12,7,12z
	 M7,13c-3.314,0-6-2.686-6-6s2.686-6,6-6s6,2.686,6,6S10.314,13,7,13z"/>
</svg>
