<?xml version="1.0" encoding="UTF-8"?>
<svg width="14px" height="14px" viewBox="0 0 14 14" version="1.1" xmlns="http://www.w3.org/2000/svg" xmlns:xlink="http://www.w3.org/1999/xlink">
    <!-- Generator: Sketch 39.1 (31720) - http://www.bohemiancoding.com/sketch -->
    <title>Oval 278 Copy 2</title>
    <desc>Created with Sketch.</desc>
    <defs></defs>
    <g id="Page-1" stroke="none" stroke-width="1" fill="none" fill-rule="evenodd">
        <g id="图标" transform="translate(-811.000000, -470.000000)" fill="#3DC6B6">
            <g id="Group-Copy-2" transform="translate(324.000000, -9.000000)">
                <g id="用户" transform="translate(259.000000, 170.000000)">
                    <g id="Group" transform="translate(0.000000, 309.000000)">
                        <path d="M235,14 C238.865993,14 242,10.8659932 242,7 C242,3.13400675 238.865993,0 235,0 C231.134007,0 228,3.13400675 228,7 C228,10.8659932 231.134007,14 235,14 Z M235,9 C236.104569,9 237,8.1045695 237,7 C237,5.8954305 236.104569,5 235,5 C233.895431,5 233,5.8954305 233,7 C233,8.1045695 233.895431,9 235,9 Z" id="Oval-278-Copy-2"></path>
                    </g>
                </g>
            </g>
        </g>
    </g>
</svg>